<svg id="Layer_1" data-name="Layer 1" xmlns="http://www.w3.org/2000/svg" viewBox="0 0 580.87 566.64"><defs><style>.cls-1{fill:#fff;}</style></defs><title>lukso-logo</title><path class="cls-1" d="M290.43,15.52l-140,80.8v161.6l139.95,80.8,140-80.8V96.32Zm0,315.52L171.75,262.52,232,276.76v-.06l.08.14H341l-49.47,53.55Zm56.86-253.6,0,0H290.92V23.48L410.23,92.37l-62.9-15Zm54.32,105.28,21.91,69.45-49-22.51ZM346,270.24l-56.6-95.06,53.89-93.33h1.46l55,95.28Zm-60.28-97.55H182.24l52.45-90.85H338.13Zm-111.12,4.43L205.09,230l-48,22V117.49l17.29,59.06.55-.16Zm3.09-5.36-20.51-70.06v-1.54L275.62,31.76,232.3,77.41h-.17Zm60.76-94.36,48.08-50.66V77.41ZM207.32,233.87,229,271.49l-68.45-16.17Zm-27.64-56.74H285.36l56.73,95.28H234.69Zm167.4,99.72h.2l.33-.57h0l24.68-42.74,48.49,22.27L304.51,322.92Zm57.55-99.33.22-.39L350.26,82.58l73.45,17.57h0V238.09Z"/><path class="cls-1" d="M57.42,527.2v-88.7H73.74V524q0,6.33,1.82,8.79a6.54,6.54,0,0,0,5.63,2.46,14.86,14.86,0,0,0,6-1v14.89a22.49,22.49,0,0,1-8.71,1.42q-9.5,0-15.29-5.7T57.42,527.2Z"/><path class="cls-1" d="M141.86,470.81v49.42q0,8.08,3.8,11.8t14.41,3.72q10.61,0,14.34-3.72t3.72-11.8V470.81h16.32v49.42q0,15.37-8.16,23.13t-26.21,7.76q-34.54,0-34.53-30.89V470.81Z"/><path class="cls-1" d="M241.17,549.37V438.49h16.16V549.37ZM269.1,494l20.39-23.17h20.43L282,502.17q-3.17,3.17-3.17,5.7,0,2.23,3,5.54l31.21,36H292.65l-23.71-27.31q-6.24-7.3-6.23-14.6a15.61,15.61,0,0,1,1.28-6.58A28.83,28.83,0,0,1,269.1,494Z"/><path class="cls-1" d="M348.41,546.52V531.16a96.66,96.66,0,0,0,29.46,4.91q8.08,0,11.4-1.5a5.36,5.36,0,0,0,3.33-5.31,6.44,6.44,0,0,0-2.06-4.93q-2.06-1.91-8.06-4.62l-17.13-7.56q-8.08-3.48-11.88-8.16t-3.8-13.38q0-11.09,7.21-16.32t23-5.23a66,66,0,0,1,25,4.75V489a63.56,63.56,0,0,0-25.35-4.91q-7.77,0-10.85,1.5a5.15,5.15,0,0,0-3.09,5,6,6,0,0,0,1.67,4.47,21,21,0,0,0,5.81,3.53l18.37,7.92q8.7,3.65,12.8,8.58t4.11,13.83q0,11.4-7.6,16.79t-24.39,5.38A86.21,86.21,0,0,1,348.41,546.52Z"/><path class="cls-1" d="M487.33,551.12q-19,0-27.72-8.55T450.9,516.9V503.28q0-16.63,9-25.42t27.4-8.79q18.84,0,27.48,8.55t8.63,25.66V516.9q0,16.48-8.95,25.35T487.33,551.12Zm19.8-34.22V503.28q0-10-4.12-14.49t-15.68-4.51q-11.57,0-15.84,4.51t-4.28,14.49V516.9q0,9.83,4.19,14.34t15.92,4.51q11.56,0,15.68-4.43T507.13,516.9Z"/></svg>